<?xml version="1.0" encoding="UTF-8"?><svg id="Layer_1" xmlns="http://www.w3.org/2000/svg" viewBox="0 0 64.44 67.39"><defs><style>.cls-1{stroke-width:.78px;}.cls-1,.cls-2,.cls-3{fill:none;stroke:#221f20;stroke-miterlimit:10;}.cls-2{stroke-width:1.1px;}.cls-4{fill:#122b1a;}.cls-5{fill:#144426;}.cls-6{fill:#214e65;}.cls-7{fill:#14424c;}.cls-8{fill:#0c2b35;}.cls-9{fill:#286043;}.cls-3{stroke-width:2.87px;}</style></defs><polygon class="cls-9" points="26.28 25.61 26.72 46.85 12.46 53.07 11.6 29.15 26.28 25.61"/><polygon class="cls-4" points="26.28 25.61 11.6 29.15 9.66 27.5 6.84 27.5 23.6 23.44 23.6 24.92 26.28 25.61"/><polygon class="cls-5" points="11.6 29.15 12.46 53.07 9.66 47.98 9.66 27.5 11.6 29.15"/><polygon class="cls-5" points="9.66 47.98 12.46 53.07 6.84 49.26 6.84 27.5 9.66 27.5 9.66 47.98"/><polyline class="cls-1" points="11.6 29.15 26.28 25.61 26.72 46.85 12.46 53.07"/><polygon class="cls-1" points="6.84 27.5 6.84 49.26 12.46 53.07 11.6 29.15 9.66 27.5 6.84 27.5"/><polyline class="cls-1" points="26.28 25.61 23.6 24.92 23.6 23.44 6.84 27.5"/><polyline class="cls-1" points="9.66 27.5 9.66 47.98 12.46 53.07"/><line class="cls-1" x1="6.85" y1="49.27" x2="9.65" y2="47.97"/><path class="cls-2" d="m23.31,25.01s-1.1-8.97-6.72-7.8c-5.62,1.17-7.05,8.83-6.74,10.89"/><polygon class="cls-6" points="36.72 22.4 32.23 43.18 45.01 52.02 50.45 28.69 36.72 22.4"/><polygon class="cls-8" points="36.72 22.4 50.45 28.69 52.69 27.47 55.44 28.01 39.77 20.79 39.49 22.24 36.72 22.4"/><polygon class="cls-7" points="50.45 28.69 45.01 52.02 48.76 47.55 52.69 27.47 50.45 28.69"/><polygon class="cls-7" points="48.76 47.55 45.01 52.02 51.26 49.36 55.44 28.01 52.69 27.47 48.76 47.55"/><polyline class="cls-1" points="50.45 28.69 36.72 22.4 32.23 43.18 45.01 52.02"/><polygon class="cls-1" points="55.44 28.01 51.26 49.36 45.01 52.02 50.45 28.69 52.69 27.47 55.44 28.01"/><polyline class="cls-1" points="36.72 22.4 39.49 22.24 39.77 20.79 55.44 28.01"/><polyline class="cls-1" points="52.69 27.47 48.76 47.55 45.01 52.02"/><line class="cls-1" x1="51.26" y1="49.36" x2="48.75" y2="47.55"/><path class="cls-2" d="m51.5,28.05s4.48-7.85-.73-10.27c-5.21-2.42-10.93,2.87-11.91,4.7"/><ellipse class="cls-3" cx="32.22" cy="33.69" rx="30.79" ry="32.26"/><line class="cls-3" x1="51.63" y1="8.97" x2="12.81" y2="58.67"/></svg>