<?xml version="1.0" encoding="UTF-8"?><svg id="Layer_1" xmlns="http://www.w3.org/2000/svg" viewBox="0 0 42.87 41.07"><defs><style>.cls-1{stroke-width:.57px;}.cls-1,.cls-2,.cls-3,.cls-4{stroke:#231f20;stroke-miterlimit:10;}.cls-1,.cls-2,.cls-4{fill:#026140;}.cls-5{fill:#231f20;}.cls-2{stroke-width:.79px;}.cls-3{fill:#015167;stroke-width:2.38px;}.cls-4{stroke-width:.77px;}</style></defs><path class="cls-3" d="m20.89,6.09s10.15-11,19.04,0c8.88,11-19.04,34.06-19.04,34.06"/><path class="cls-3" d="m21.98,6.09s-10.13-11.02-19.04-.03c-8.9,10.98,18.98,34.09,18.98,34.09"/><path class="cls-2" d="m3.92,16.75s6.19-.39,9.41,1.42,2.45,10.31,3.35,11.34,1.42,5.67,1.42,5.67c0,0-12.28-9.17-14.17-18.43Z"/><path class="cls-4" d="m27.18,3.09s-2.05,5.8,0,7.09.6,7.47.6,7.47c0,0,8.07,6.79,9.87,3.02s3.68-9.9,3.02-11.4-6.15-12.76-13.5-6.19Z"/><path class="cls-5" d="m21.77,39.49l3.03-1.99c.35-.23.52-.71.28-1.08-.22-.34-.71-.53-1.08-.28l-3.03,1.99c-.35.23-.52.71-.28,1.08.22.34.71.53,1.08.28h0Z"/><path class="cls-5" d="m21.93,6.65c.31-.28.6-.58.88-.89.25-.28.48-.6.78-.83l-.16.12c.06-.05.13-.09.2-.13.17-.09.31-.29.36-.47.05-.19.03-.44-.08-.61s-.27-.32-.47-.36c-.22-.05-.41-.02-.61.08-.43.22-.72.61-1.03.96s-.64.69-.99,1.01c-.3.28-.31.84,0,1.12.33.3.8.3,1.12,0h0Z"/><path class="cls-2" d="m12.41,6.69s-3.01,2.06-1.92,3.22,3.29,3.84,4.39,3.29,4.52-2.19,4.45-3.22-6.92-3.29-6.92-3.29Z"/><path class="cls-1" d="m23.23,36.45s.79-7.56,0-10.51,10.31.42,10.31.42l-10.31,10.09Z"/></svg>